<svg xmlns="http://www.w3.org/2000/svg" width="36.686" height="26.516" viewBox="0 0 36.686 26.516">
  <path id="Icon_awesome-cc-diners-club" data-name="Icon awesome-cc-diners-club" d="M15.267,5.085c-6.172,0-11.2,4.652-11.2,10.405,0,5.735,5.025,10.405,11.2,10.405,6.191,0,11.2-4.67,11.2-10.405,0-5.753-5.006-10.405-11.2-10.405ZM12.725,21.634A6.611,6.611,0,0,1,8.178,15.49a6.651,6.651,0,0,1,4.547-6.162Zm5.082.018V9.329a6.651,6.651,0,0,1,4.547,6.162,6.651,6.651,0,0,1-4.547,6.162ZM33.628,2.25H3.057A2.956,2.956,0,0,0,0,5.091V25.925a2.956,2.956,0,0,0,3.057,2.841H33.628a2.956,2.956,0,0,0,3.057-2.841V5.091A2.956,2.956,0,0,0,33.628,2.25ZM21,26.872H15.247C8.484,26.872,2.9,21.812,2.9,15.615,2.9,8.832,8.484,4.144,15.247,4.144H21c6.687,0,12.783,4.688,12.783,11.471C33.781,21.812,27.686,26.872,21,26.872Z" transform="translate(0 -2.25)"/>
</svg>
