<svg xmlns="http://www.w3.org/2000/svg" width="40" height="26.667" viewBox="0 0 40 26.667">
  <path id="Icon_metro-visa" data-name="Icon metro-visa" d="M36.859,25.254h-2.4q.243-.642,1.146-3.108l.052-.156q.069-.174.174-.451t.156-.451l.208.955ZM11.789,24.126,10.782,19a1.151,1.151,0,0,0-1.3-.937H4.828l-.035.226q5.4,1.372,7,5.833ZM14.9,18.067l-2.812,7.6-.3-1.545a6.313,6.313,0,0,0-1.476-2.248,6.733,6.733,0,0,0-2.274-1.536L10.383,29.2h3.038l4.531-11.128H14.9ZM17.31,29.213h2.882L22,18.067H19.116ZM30.644,18.345a7.036,7.036,0,0,0-2.587-.469,5.627,5.627,0,0,0-3.49,1.024A3.23,3.23,0,0,0,23.2,21.556q-.017,1.771,2.517,3.021a4.8,4.8,0,0,1,1.163.712.925.925,0,0,1,.33.677.869.869,0,0,1-.521.8,2.507,2.507,0,0,1-1.2.278,6.273,6.273,0,0,1-2.708-.573l-.382-.191-.4,2.5a7.692,7.692,0,0,0,3.212.59,5.732,5.732,0,0,0,3.62-1.024,3.413,3.413,0,0,0,1.4-2.778q0-1.84-2.431-3.021a8.39,8.39,0,0,1-1.233-.729.836.836,0,0,1-.382-.66.811.811,0,0,1,.425-.668,2.187,2.187,0,0,1,1.224-.286,4.9,4.9,0,0,1,2.153.417l.26.139Zm7.378-.278H35.8a1.475,1.475,0,0,0-1.51.937L30.019,29.213h3.021l.608-1.667h3.681q.087.382.347,1.667h2.674Zm4.549-5.556V34.734a2.253,2.253,0,0,1-2.222,2.222H4.793A2.136,2.136,0,0,1,3.23,36.3a2.135,2.135,0,0,1-.66-1.563V12.511a2.136,2.136,0,0,1,.66-1.563,2.135,2.135,0,0,1,1.563-.66H40.348a2.253,2.253,0,0,1,2.222,2.222Z" transform="translate(-2.571 -10.289)"/>
</svg>
