<svg xmlns="http://www.w3.org/2000/svg" width="33.997" height="24.484" viewBox="0 0 33.997 24.484">
  <g id="Icon_feather-youtube" data-name="Icon feather-youtube" transform="translate(1 1)">
    <path id="Path_15" data-name="Path 15" d="M35.491,20.186a4.043,4.043,0,0,0-2.821-2.909c-2.5-.611-12.507-.611-12.507-.611s-10.006,0-12.507.669a4.043,4.043,0,0,0-2.821,2.909,42.175,42.175,0,0,0-.669,7.693,42.175,42.175,0,0,0,.669,7.751,4.043,4.043,0,0,0,2.821,2.792c2.5.669,12.507.669,12.507.669s10.006,0,12.507-.669a4.043,4.043,0,0,0,2.821-2.909,42.175,42.175,0,0,0,.669-7.635,42.175,42.175,0,0,0-.669-7.751Z" transform="translate(-4.164 -16.667)" fill="none" stroke="#fff" stroke-linecap="round" stroke-linejoin="round" stroke-width="2"/>
    <path id="Path_16" data-name="Path 16" d="M40.625,44.844l8.362-4.756-8.362-4.756Z" transform="translate(-27.899 -28.818)" fill="none" stroke="#fff" stroke-linecap="round" stroke-linejoin="round" stroke-width="2"/>
  </g>
</svg>
