<svg xmlns="http://www.w3.org/2000/svg" width="41.365" height="26.516" viewBox="0 0 41.365 26.516">
  <path id="Icon_payment-discover" data-name="Icon payment-discover" d="M5.964,16.35V42.866H47.329V16.35H5.964ZM20.741,42.07H6.76V17.145H46.534v15.19c-3.47,2.065-12.279,6.7-25.793,9.736ZM9.325,24.414H7.555V30.62h1.77a3.207,3.207,0,0,0,2.218-.709,3.127,3.127,0,0,0,1.118-2.386,3.087,3.087,0,0,0-3.336-3.112Zm1.416,4.679a2.326,2.326,0,0,1-1.659.485H8.766v-4.1h.317a2.192,2.192,0,0,1,1.659.5,2.054,2.054,0,0,1,.671,1.547,2.125,2.125,0,0,1-.671,1.565Zm2.479-4.679h1.211V30.62H13.221ZM17.4,26.8c-.727-.261-.932-.447-.932-.783,0-.391.373-.69.895-.69a1.258,1.258,0,0,1,.987.5l.634-.82a2.691,2.691,0,0,0-1.826-.689,1.824,1.824,0,0,0-1.938,1.77c0,.858.391,1.3,1.528,1.715a4.113,4.113,0,0,1,.839.354.71.71,0,0,1,.354.634.878.878,0,0,1-.932.876,1.425,1.425,0,0,1-1.323-.82L14.9,29.6a2.422,2.422,0,0,0,2.144,1.193,2,2,0,0,0,2.144-2.05c0-.988-.411-1.435-1.79-1.939Zm2.181.727a3.219,3.219,0,0,0,3.281,3.243,3.252,3.252,0,0,0,1.51-.354V28.98a1.946,1.946,0,0,1-1.454.689,2.031,2.031,0,0,1-2.087-2.144,2.075,2.075,0,0,1,2.032-2.144,1.987,1.987,0,0,1,1.51.708V24.656a3.156,3.156,0,0,0-1.491-.373,3.258,3.258,0,0,0-3.3,3.243Zm11.891.038a3.373,3.373,0,1,1-3.373-3.373A3.373,3.373,0,0,1,31.468,27.564Zm2.516,1.025-1.659-4.175H31l2.646,6.375H34.3l2.683-6.375H35.662Zm3.541,2.032h3.43V29.577H38.737V27.9h2.144V26.855H38.737V25.476h2.218V24.414h-3.43Zm6.822-2.609a1.644,1.644,0,0,0,1.416-1.752c0-1.174-.8-1.846-2.2-1.846H41.757V30.62h1.211V28.142h.168l1.677,2.479H46.3l-1.957-2.609Zm-1.026-.727h-.354V25.4h.373c.764,0,1.174.317,1.174.913,0,.634-.409.969-1.193.969Z" transform="translate(-5.964 -16.35)"/>
</svg>
