<svg xmlns="http://www.w3.org/2000/svg" width="40" height="26.667" viewBox="0 0 40 26.667">
  <path id="Icon_metro-cc-paypal" data-name="Icon metro-cc-paypal" d="M8.161,22.772H7.9q-.33,0-.33-.313a5.232,5.232,0,0,1,.33-1.476.524.524,0,0,1,.26-.339,1.215,1.215,0,0,1,.486-.078q1.337,0,1.337.851a1.117,1.117,0,0,1-.53,1.033,2.451,2.451,0,0,1-1.293.321Zm5.938,2.8q-.816,0-.816-.5,0-1.076,2.135-1.076l.052.052Q15.383,25.567,14.1,25.567Zm13.437-2.76h-.26a.292.292,0,0,1-.33-.33A5.232,5.232,0,0,1,27.275,21a.5.5,0,0,1,.252-.33,1.341,1.341,0,0,1,.495-.069q1.337,0,1.337.851a1.117,1.117,0,0,1-.53,1.033,2.451,2.451,0,0,1-1.293.321Zm5.938,2.778q-.816,0-.816-.521,0-1.076,2.135-1.076l.052.052q-.087,1.545-1.372,1.545ZM9.046,19.213H6.824a.471.471,0,0,0-.252.069.423.423,0,0,0-.148.13l-.122.217q-.052.122-.781,3.3t-.729,3.333a.3.3,0,0,0,.1.217.319.319,0,0,0,.234.1H6.2q.434,0,.564-.6l.26-1.2.564-.6a8.347,8.347,0,0,0,1.519-.13,6.676,6.676,0,0,0,1.4-.425,2.433,2.433,0,0,0,1.1-.911,2.6,2.6,0,0,0,.408-1.467,2.079,2.079,0,0,0-.252-1.059,1.487,1.487,0,0,0-.712-.634,3.683,3.683,0,0,0-.929-.269,7.415,7.415,0,0,0-1.076-.069Zm6.007,1.667a7.8,7.8,0,0,0-1.285.1,1.264,1.264,0,0,0-.148.017l-.156.026-.13.026-.13.035-.113.052-.113.069-.087.087-.078.122-.069.156a2.9,2.9,0,0,0-.156.677q0,.174.156.174a1.728,1.728,0,0,0,.373-.087l.339-.1a3.9,3.9,0,0,1,1.007-.139q1.285,0,1.285.625a.229.229,0,0,1-.174.243,2.193,2.193,0,0,1-.313.052q-.174.017-.373.026a2.706,2.706,0,0,0-.3.026,9.834,9.834,0,0,0-1.12.174,5.213,5.213,0,0,0-.981.339,1.72,1.72,0,0,0-.79.677,2.053,2.053,0,0,0-.269,1.085,1.267,1.267,0,0,0,.451,1.033,1.686,1.686,0,0,0,1.111.373,2.716,2.716,0,0,0,.79-.113,2.935,2.935,0,0,0,.573-.226q.2-.113.668-.408a.654.654,0,0,0-.052.26.319.319,0,0,0,.1.234.3.3,0,0,0,.217.1h.972a.533.533,0,0,1,.122-.061,1.008,1.008,0,0,0,.13-.061l.087-.061a.267.267,0,0,0,.087-.1.564.564,0,0,0,.043-.139l.781-3.368a1.773,1.773,0,0,0,.069-.521q0-1.406-2.517-1.406Zm9.167.087H22.935a.84.84,0,0,0-.677.4q-.087.122-.512.885t-.807,1.415a2.777,2.777,0,0,1-.451.668l-.087-.069a9.962,9.962,0,0,0-.469-2.882.378.378,0,0,0-.061-.148.635.635,0,0,0-.1-.113,1.2,1.2,0,0,0-.113-.087.4.4,0,0,0-.148-.052l-.148-.026q-.052-.009-.165-.017t-.156-.009h-.321q-.66,0-.66.365l.017.087q.087.92.434,2.622t.434,2.483a3.683,3.683,0,0,1,.035.417,2.311,2.311,0,0,1-.53,1.068,2.384,2.384,0,0,0-.53,1.016q0,.226.694.226,1.059,0,1.319-.434l4.253-7.2a1.435,1.435,0,0,0,.174-.451q0-.156-.139-.156Zm4.2-1.719h-2.24q-.313,0-.5.4-.1.226-.807,3.325t-.7,3.307q0,.347.747.347h.443l.165-.017.148-.035.148-.052.113-.078.1-.1.052-.148.365-1.58a.5.5,0,0,1,.182-.3.517.517,0,0,1,.339-.122,8.929,8.929,0,0,0,1.519-.122,6.052,6.052,0,0,0,1.4-.425,2.507,2.507,0,0,0,1.1-.911,2.555,2.555,0,0,0,.408-1.458,2.079,2.079,0,0,0-.252-1.059,1.487,1.487,0,0,0-.712-.634,3.684,3.684,0,0,0-.929-.269,7.415,7.415,0,0,0-1.076-.069Zm6.007,1.632a11.135,11.135,0,0,0-1.285.1,1.678,1.678,0,0,0-.833.278,1.029,1.029,0,0,0-.191.33,2.257,2.257,0,0,0-.139.677q0,.174.139.174.017,0,.712-.208a3.9,3.9,0,0,1,1.007-.139q1.285,0,1.285.625a.214.214,0,0,1-.174.243q-.069.017-.99.122a9.834,9.834,0,0,0-1.12.174,5.213,5.213,0,0,0-.981.339,1.72,1.72,0,0,0-.79.677,2.053,2.053,0,0,0-.269,1.085,1.248,1.248,0,0,0,.451,1.016,1.686,1.686,0,0,0,1.111.373,2.832,2.832,0,0,0,.781-.1,3.014,3.014,0,0,0,.59-.226q.226-.122.66-.417-.052.26-.052.278a.293.293,0,0,0,.035.148.233.233,0,0,0,.113.1l.139.061a.6.6,0,0,0,.182.035q.122.009.165.009h.3q.729,0,.833-.434l.781-3.368a2.738,2.738,0,0,0,.052-.538q0-1.406-2.517-1.406Zm5.59-1.58h-.955q-.434,0-.573.694-.174.764-.634,2.9t-.738,3.3v.087a.283.283,0,0,0,.278.313H38.4a.518.518,0,0,0,.321-.113.467.467,0,0,0,.182-.286L40.348,19.7h-.017l.017-.087a.3.3,0,0,0-.1-.217A.319.319,0,0,0,40.018,19.3Zm2.552-6.788V34.734a2.253,2.253,0,0,1-2.222,2.222H4.793A2.136,2.136,0,0,1,3.23,36.3a2.135,2.135,0,0,1-.66-1.563V12.511a2.136,2.136,0,0,1,.66-1.563,2.135,2.135,0,0,1,1.563-.66H40.348a2.253,2.253,0,0,1,2.222,2.222Z" transform="translate(-2.571 -10.289)"/>
</svg>
