<svg xmlns="http://www.w3.org/2000/svg" width="31.086" height="29.632" viewBox="0 0 31.086 29.632">
  <g id="Icon_feather-linkedin" data-name="Icon feather-linkedin" transform="translate(1 1)">
    <path id="Path_17" data-name="Path 17" d="M50.393,33.333a8.726,8.726,0,0,1,8.726,8.726v10.18H53.3V42.059a2.909,2.909,0,0,0-5.817,0v10.18H41.667V42.059A8.726,8.726,0,0,1,50.393,33.333Z" transform="translate(-30.032 -24.607)" fill="none" stroke="#fff" stroke-linecap="round" stroke-linejoin="round" stroke-width="2"/>
    <path id="Path_18" data-name="Path 18" d="M8.333,37.5h5.817V54.952H8.333Z" transform="translate(-8.333 -27.32)" fill="none" stroke="#fff" stroke-linecap="round" stroke-linejoin="round" stroke-width="2"/>
    <path id="Path_19" data-name="Path 19" d="M14.151,11.242a2.909,2.909,0,1,1-2.909-2.909A2.909,2.909,0,0,1,14.151,11.242Z" transform="translate(-8.333 -8.333)" fill="none" stroke="#fff" stroke-linecap="round" stroke-linejoin="round" stroke-width="2"/>
  </g>
</svg>
