<svg xmlns="http://www.w3.org/2000/svg" width="40" height="26.667" viewBox="0 0 40 26.667">
  <path id="Icon_metro-mastercard" data-name="Icon metro-mastercard" d="M14.22,24.265h-.226q-.816,0-.816.556,0,.382.347.382a.58.58,0,0,0,.486-.26A1.205,1.205,0,0,0,14.22,24.265Zm6.858-.625h1.076v-.052a.267.267,0,0,0,.009-.113q-.009-.043-.017-.122a.488.488,0,0,0-.035-.139.361.361,0,0,0-.078-.113.426.426,0,0,0-.13-.087.5.5,0,0,0-.2-.035q-.486,0-.625.66Zm9.375.625h-.208q-.833,0-.833.556,0,.382.347.382a.58.58,0,0,0,.486-.26A1.205,1.205,0,0,0,30.453,24.265Zm5.538-.451q0-.712-.521-.712a.616.616,0,0,0-.538.347,1.7,1.7,0,0,0-.208.885q0,.729.486.729a.647.647,0,0,0,.564-.347A1.682,1.682,0,0,0,35.991,23.813ZM10.9,21.365h1.51l-.764,4.549h-.972l.556-3.49L10,25.914H9.324l-.069-3.472-.59,3.472h-.92l.764-4.549H9.914l.035,2.83ZM15.3,23.223q0,.1-.069.729-.278,1.753-.3,1.962h-.816l.017-.382a1.193,1.193,0,0,1-1.007.451.838.838,0,0,1-.651-.278,1.044,1.044,0,0,1-.252-.729,1.287,1.287,0,0,1,.451-1.05,1.936,1.936,0,0,1,1.267-.373,3.744,3.744,0,0,1,.4.017.487.487,0,0,1,.009-.1q.009-.043.017-.078a.239.239,0,0,0,.009-.052q0-.347-.625-.347a3.227,3.227,0,0,0-1.024.174q0-.069.122-.833a4.253,4.253,0,0,1,1.163-.191q1.285,0,1.285,1.076ZM18,22.216l-.139.851a5.289,5.289,0,0,0-.712-.052q-.469,0-.469.3a.264.264,0,0,0,.078.208,1.57,1.57,0,0,0,.373.191,1.091,1.091,0,0,1,.694,1.042q0,1.25-1.51,1.233a4.206,4.206,0,0,1-1.007-.1q0-.035.122-.851a3.387,3.387,0,0,0,.885.139q.556,0,.556-.33a.27.27,0,0,0-.078-.2,1.551,1.551,0,0,0-.373-.217,1.1,1.1,0,0,1-.747-1.024q0-1.25,1.458-1.25A4.532,4.532,0,0,1,18,22.216Zm1.528,0h.486l-.122.9h-.5q-.035.3-.113.7t-.122.668a3.082,3.082,0,0,0-.043.313q0,.278.33.278a1.142,1.142,0,0,0,.278-.035l-.139.816a2.2,2.2,0,0,1-.694.122q-.747,0-.781-.816a7.505,7.505,0,0,1,.139-.972q.052-.347.434-2.535h.955Zm3.524,1.267a3.891,3.891,0,0,1-.122.9H21.008a.594.594,0,0,0,.174.573,1,1,0,0,0,.66.191,2.225,2.225,0,0,0,1.007-.243l-.156.937a3.844,3.844,0,0,1-.99.139,1.458,1.458,0,0,1-1.649-1.649,2.49,2.49,0,0,1,.477-1.571,1.466,1.466,0,0,1,1.207-.616,1.285,1.285,0,0,1,.964.365,1.332,1.332,0,0,1,.356.972ZM25.47,22.2a4.094,4.094,0,0,0-.382,1.076q-.382-.035-.538.417a17.572,17.572,0,0,0-.434,2.222h-.972l.052-.243q.382-2.257.5-3.455h.885l-.052.573a2.073,2.073,0,0,1,.443-.512.574.574,0,0,1,.495-.078Zm3.247-.712-.156.99a1.982,1.982,0,0,0-.868-.243,1.054,1.054,0,0,0-.885.477,2.029,2.029,0,0,0-.347,1.224,1.28,1.28,0,0,0,.234.816.8.8,0,0,0,.668.3,1.963,1.963,0,0,0,.833-.226l-.174,1.024a3.2,3.2,0,0,1-.868.139,1.561,1.561,0,0,1-1.241-.53,2.109,2.109,0,0,1-.46-1.432,3.089,3.089,0,0,1,.616-1.988,1.941,1.941,0,0,1,1.589-.773,3.113,3.113,0,0,1,1.059.226Zm2.813,1.736a4.508,4.508,0,0,1-.069.729q-.226,1.372-.3,1.962h-.8l.017-.382a1.213,1.213,0,0,1-1.024.451.812.812,0,0,1-.642-.278,1.067,1.067,0,0,1-.243-.729,1.3,1.3,0,0,1,.443-1.05,1.9,1.9,0,0,1,1.259-.373,3.456,3.456,0,0,1,.4.017.825.825,0,0,0,.035-.226q0-.347-.625-.347a3.227,3.227,0,0,0-1.024.174q0-.069.139-.833a4.253,4.253,0,0,1,1.163-.191q1.267,0,1.267,1.076ZM33.977,22.2a3.345,3.345,0,0,0-.365,1.076.5.5,0,0,0-.547.4,19.572,19.572,0,0,0-.443,2.24h-.972l.052-.243q.33-1.806.5-3.455h.9a3.522,3.522,0,0,1-.069.573,2.335,2.335,0,0,1,.46-.512.543.543,0,0,1,.477-.078Zm2.448-.833H37.4l-.747,4.549h-.92l.052-.33a1.246,1.246,0,0,1-.9.4,1.03,1.03,0,0,1-.859-.417,1.773,1.773,0,0,1-.321-1.111,2.7,2.7,0,0,1,.477-1.6,1.364,1.364,0,0,1,1.12-.677,1.127,1.127,0,0,1,.92.5Zm1.927,2.257a9.445,9.445,0,0,0-15.139-7.535,9.954,9.954,0,0,1,2.969,4.931h-.868a9.348,9.348,0,0,0-2.743-4.392,9.348,9.348,0,0,0-2.743,4.392h-.868a9.954,9.954,0,0,1,2.969-4.931,9.45,9.45,0,0,0-13.88,2.8A9.451,9.451,0,0,0,11.485,31.8a9.482,9.482,0,0,0,10.443-.642,9.985,9.985,0,0,1-2.865-4.583h.868a9.27,9.27,0,0,0,2.639,4.045,9.27,9.27,0,0,0,2.639-4.045h.868a9.984,9.984,0,0,1-2.865,4.583,9.428,9.428,0,0,0,15.139-7.535Zm4.219-11.111V34.734a2.253,2.253,0,0,1-2.222,2.222H4.793A2.136,2.136,0,0,1,3.23,36.3a2.135,2.135,0,0,1-.66-1.563V12.511a2.136,2.136,0,0,1,.66-1.563,2.135,2.135,0,0,1,1.563-.66H40.348a2.253,2.253,0,0,1,2.222,2.222Z" transform="translate(-2.571 -10.289)"/>
</svg>
