<svg xmlns="http://www.w3.org/2000/svg" width="37.613" height="26.516" viewBox="0 0 37.613 26.516">
  <path id="Icon_awesome-cc-jcb" data-name="Icon awesome-cc-jcb" d="M28.177,14.816V12.9c2.69,0,2.514.012,2.514.012a.972.972,0,0,1,.869.947.956.956,0,0,1-.869.935C30.613,14.822,30.476,14.816,28.177,14.816Zm2.795,1.2a22.9,22.9,0,0,0-2.795-.03v2.072a22.787,22.787,0,0,0,2.795-.03,1.026,1.026,0,0,0,.882-1.006A1.041,1.041,0,0,0,30.972,16.011Zm6.641-10.92V25.925a3,3,0,0,1-3.134,2.841H3.134A3,3,0,0,1,0,25.925V5.091A3,3,0,0,1,3.134,2.25H34.479A3,3,0,0,1,37.613,5.091ZM11.885,11.738H8.163c0,3.972.7,6.493-2.338,6.493a9.173,9.173,0,0,1-3.735-.876v1.657a21.694,21.694,0,0,0,4.44.491C12.923,19.5,11.885,16.68,11.885,11.738ZM23.541,12c-4.14-.947-10.775-.882-10.775,3.51,0,4.563,7.066,4.356,10.775,3.5V17.343c-3.108,1.462-7.02,1.3-7.02-1.835s3.9-3.291,7.02-1.847Zm11.983,5.309c0-1.095-1.077-1.805-2.481-1.894v-.047c1.273-.16,1.979-.917,1.979-1.787,0-1.125-1.025-1.776-2.416-1.835,0,0,.411-.018-7.856-.018v7.547h8.012c1.587.006,2.762-.764,2.762-1.965Z" transform="translate(0 -2.25)"/>
</svg>
