<svg xmlns="http://www.w3.org/2000/svg" width="34.11" height="26.516" viewBox="0 0 34.11 26.516">
  <path id="Icon_awesome-cc-amex" data-name="Icon awesome-cc-amex" d="M19.24,10.288c0-.971-.835-1.089-1.622-1.089L15.3,9.181v4.1h.971V11.8H17.34c1.089,0,.858.61.876,1.486H19.2v-.8c0-.545-.089-.894-.651-1.089a1.165,1.165,0,0,0,.693-1.107Zm-1.74.669H16.275v-.906h1.243c.3,0,.633.059.633.438s-.314.468-.651.468Zm-.988,5.3H13.392L12.149,17.6l-1.213-1.349H7l-.006,4.1h3.871l1.261-1.361,1.207,1.361h1.906l.006-1.379c1.119,0,2.918.272,2.918-1.379,0-1.024-.728-1.344-1.651-1.344Zm-6.144,3.238h-2.4v-.817h2.149V17.84H7.965V17.1h2.468l1.059,1.2Zm3.895.485-1.5-1.663,1.5-1.622ZM16.5,18.142H15.245V17.1h1.273c.331,0,.6.136.6.5,0,.379-.272.545-.621.545Zm-1.87-8.091V9.187H11.344v4.1h3.285v-.846h-2.3v-.817h2.237v-.835H12.327v-.74ZM34.09,15.473h-.012ZM22.572,17.361c0-.971-.835-1.107-1.6-1.107H18.636l-.006,4.1h.983l.006-1.5H20.66c.651,0,.876.118.876.817l-.006.681h.983l.006-.817c0-.527-.107-.894-.651-1.089a1.171,1.171,0,0,0,.7-1.089Zm-1.728.663H19.619V17.1h1.243c.3,0,.633.059.633.438C21.495,17.947,21.175,18.024,20.844,18.024ZM10.616,13.289v-4.1H8.983L7.817,11.969,6.532,9.187h-1.6v3.889L3.265,9.187H1.815l-1.758,4.1H1.116l.379-.906H3.537l.379.906h2V10.081l1.421,3.208H8.2l1.421-3.208v3.208ZM1.844,11.531,2.507,9.9l.681,1.634ZM30.1,20.936v-.266c-.639.331-.231.266-9.275.266,0-1.492.006-1.415,0-1.492-.1-.006-.189-.006-.556-.006,0,1.059-.006.4-.006,1.5H17.92c0-.716.006-.906.006-1.728a3.835,3.835,0,0,1-2.03.367c0,.87-.006.491-.006,1.361H13c-.3-.337-.16-.183-.911-1.03-.189.207-.758.823-.953,1.03H6.278V15.473H11.2c.3.331.166.183.917,1.018.189-.207.722-.793.929-1.018h3.433a2.826,2.826,0,0,1,1.438.331v-.331c3.214,0,3.806-.083,4.481.3v-.3h4.629v.308c.675-.408,1.16-.308,3.841-.308v.3c.61-.349.983-.308,3.214-.3V5.091A2.842,2.842,0,0,0,31.237,2.25H2.827A2.842,2.842,0,0,0-.014,5.091v6.5c.556-1.3,1.166-2.723,1.367-3.19H3.7c.255.6.095.219.533,1.249V8.4H6.958c.172.367.657,1.421.823,1.776.343-.8.6-1.415.746-1.776h6.1c0-.006.681,0,.687,0,2.587.012,3.172-.047,3.812.314V8.4h2.362v.55A2.831,2.831,0,0,1,23.3,8.4h1.634c0,.03.112.018.136.018h1.918c.249.58.154.355.521,1.219V8.417h2.563c.29.474-.059-.107.663,1.089V8.417H33.1v5.445H30.634c-.32-.533-.083-.13-.781-1.3v1.3H26.727c-.379-.876-.006-.018-.391-.906H25.212c-.249.592-.13.308-.379.906H23.247a2.752,2.752,0,0,1-1.758-.527v.527H17.553c-.018-.823-.006-1.468-.006-1.468a4.225,4.225,0,0,0-.58-.012v1.486H8.947v-.675c-.148.331-.16.349-.3.675H6.9c-.237-.527-.172-.379-.3-.675v.675H3.466c-.249-.6-.13-.314-.379-.906H1.951c-.249.592-.13.308-.379.906H0V25.925a2.842,2.842,0,0,0,2.841,2.841H31.255A2.842,2.842,0,0,0,34.1,25.925V20.575C33.344,21.066,32.161,20.936,30.1,20.936Zm2.149-3.818h1.782v-.864H32.084a1.242,1.242,0,0,0-1.409,1.225c0,1.953,2.527.758,2.527,1.622,0,.3-.255.379-.5.379H30.811l-.006.876H32.7a1.551,1.551,0,0,0,1.332-.527V18.3c-.621-.817-2.326-.077-2.326-.8,0-.343.272-.385.545-.385Zm-3.374,2.356H26.97l-.006.876H28.87c.876,0,1.551-.331,1.551-1.3,0-1.965-2.539-.663-2.539-1.557,0-.331.29-.379.545-.379h1.8v-.864H28.26a1.227,1.227,0,0,0-1.391,1.225c0,1.953,2.527.74,2.527,1.622-.006.32-.278.379-.521.379Zm-2.5-2.373v-.846H23.111l-.006,4.1h3.267l.006-.846-2.285-.018v-.817h2.243V17.84H24.1V17.1Zm-3.332-6.4c-.018.012-.083.13-.083.45,0,.355.053.456.065.468a.466.466,0,0,0,.2.03l.432-1c-.065,0-.124-.006-.183-.006C23.146,10.643,23.063,10.684,23.046,10.7Zm1.207-.621h-.006Zm-.959-.9c-1.391,0-2.012.71-2.012,2.089,0,1.314.6,2.012,1.953,2.012h1.136l.379-.906h2.03l.391.906h1.995V10.211l1.847,3.072h1.4V9.2h-1v2.847L29.687,9.2h-1.5V13.07L26.538,9.2H25.07l-1.391,3.226h-.438c-.787,0-.953-.479-.953-1.178,0-1.409.929-1.184,1.959-1.166v-.9Zm2.492.716.663,1.634H25.1ZM19.8,9.187v4.1h1v-4.1Z" transform="translate(0.014 -2.25)"/>
</svg>
