<svg xmlns="http://www.w3.org/2000/svg" width="32.086" height="32.086" viewBox="0 0 32.086 32.086">
  <g id="Icon_feather-instagram" data-name="Icon feather-instagram" transform="translate(1.5 1.5)">
    <path id="Path_20" data-name="Path 20" d="M15.6,8.333H30.148A7.272,7.272,0,0,1,37.42,15.6V30.148a7.272,7.272,0,0,1-7.272,7.272H15.6a7.272,7.272,0,0,1-7.272-7.272V15.6A7.272,7.272,0,0,1,15.6,8.333Z" transform="translate(-8.333 -8.333)" fill="none" stroke="#fff" stroke-linecap="round" stroke-linejoin="round" stroke-width="3"/>
    <path id="Path_21" data-name="Path 21" d="M45.085,38.116a5.817,5.817,0,1,1-4.9-4.9A5.817,5.817,0,0,1,45.085,38.116Z" transform="translate(-24.725 -24.49)" fill="none" stroke="#fff" stroke-linecap="round" stroke-linejoin="round" stroke-width="3"/>
    <path id="Path_22" data-name="Path 22" d="M72.917,27.083h0" transform="translate(-50.375 -20.539)" fill="none" stroke="#fff" stroke-linecap="round" stroke-linejoin="round" stroke-width="3"/>
  </g>
</svg>
