<svg xmlns="http://www.w3.org/2000/svg" width="44.519" height="26.667" viewBox="0 0 44.519 26.667">
  <path id="Icon_payment-maestro-alt" data-name="Icon payment-maestro-alt" d="M43.292,28.669q-1.4,0-1.4,1.9,0,1.269.888,1.268c.676,0,1.141-.463,1.4-1.4V29.81c0-.761-.3-1.141-.888-1.141ZM26.8,29.3a.673.673,0,0,0-.761-.761A1.132,1.132,0,0,0,24.9,29.556h1.9V29.3Zm-7.737,2.156c0,.339.21.507.634.507.761,0,1.141-.464,1.141-1.4h-.38c-.932,0-1.4.3-1.4.888Zm28.809-8.5a15.312,15.312,0,0,0-4.849-4.849,14.156,14.156,0,0,0-6.722-1.763A12.718,12.718,0,0,0,28.261,19.1a13.4,13.4,0,0,1,4.187,6.943H31.236a12.693,12.693,0,0,0-3.857-6.281,12.679,12.679,0,0,0-3.857,6.281H22.311A13.39,13.39,0,0,1,26.5,19.1a12.726,12.726,0,0,0-8.044-2.755,14.148,14.148,0,0,0-6.722,1.763,15.291,15.291,0,0,0-4.849,4.849,13.694,13.694,0,0,0,0,13.443,15.275,15.275,0,0,0,4.849,4.849,14.131,14.131,0,0,0,6.722,1.763A12.718,12.718,0,0,0,26.5,40.262a13.889,13.889,0,0,1-4.077-6.391h1.212A13.41,13.41,0,0,0,27.38,39.6a13.43,13.43,0,0,0,3.747-5.73h1.212a13.922,13.922,0,0,1-4.077,6.391,12.708,12.708,0,0,0,8.044,2.755,14.135,14.135,0,0,0,6.722-1.763A15.3,15.3,0,0,0,47.876,36.4a13.694,13.694,0,0,0,0-13.444ZM14.882,33.108,15.9,27.781l-2.41,5.327H11.964l-.254-5.327L10.7,33.108H9.174l1.268-6.976h2.663l.127,4.312,1.9-4.312h2.79l-1.4,6.976H14.882Zm7.737-3.044-.38,2.029v.38l-.127.254v.381h-1.4v-.634a1.977,1.977,0,0,1-1.776.761q-1.522,0-1.522-1.649,0-2.155,2.917-2.156a1.8,1.8,0,0,1,.761.127v-.38c0-.337-.339-.507-1.014-.507a4.356,4.356,0,0,0-1.4.127h-.254l-.127.127.127-1.268a7.475,7.475,0,0,1,2.029-.38q2.283,0,2.283,1.649a6.025,6.025,0,0,1-.127,1.14Zm3.552,1.9a3.928,3.928,0,0,0,1.775-.38l-.254,1.4a7.061,7.061,0,0,1-1.649.254q-2.919,0-2.917-2.537,0-3.425,2.917-3.425,2.283,0,2.283,2.029a6.083,6.083,0,0,1-.127,1.4H24.774v.254c0,.677.464,1.014,1.4,1.014Zm6.6-3.3H31.5q-.761,0-.761.38t.761.634a1.709,1.709,0,0,1,1.141,1.649q0,1.9-2.664,1.9h-.38a1.15,1.15,0,0,0-.507-.127H28.58l-.254-.127H28.2l.254-1.268a12.246,12.246,0,0,0,1.522.254q1.014,0,1.014-.507c0-.254-.254-.464-.761-.634q-1.4-.634-1.4-1.649,0-1.9,2.664-1.9c.083,0,.317.021.7.063a7.993,7.993,0,0,0,.825.063l-.253,1.268Zm2.917,4.312a7.5,7.5,0,0,1-1.268.254,1.121,1.121,0,0,1-1.268-1.268v-.507l.127-.507v-.507l.888-4.312H35.81L35.556,27.4h.888l-.254,1.4H35.3l-.38,2.41a.368.368,0,0,0-.127.254c0,.254.21.38.634.38a.73.73,0,0,0,.507-.127l-.254,1.268Zm2.283.127H36.19L37.2,27.4h1.649l-.254.888a2.1,2.1,0,0,1,1.522-.888H40.5l.127.127L40,29.05h-.381q-.889,0-1.649,4.058Zm7.991-2.537q-.381,2.663-3.3,2.664-2.791,0-2.79-2.664a3.189,3.189,0,0,1,.951-2.346,3.346,3.346,0,0,1,2.473-.951q2.663,0,2.664,2.537v.761Z" transform="translate(-5.12 -16.35)"/>
</svg>
