<svg xmlns="http://www.w3.org/2000/svg" width="25.868" height="21.875" viewBox="0 0 25.868 21.875">
  <path id="Icon_awesome-quote-left" data-name="Icon awesome-quote-left" d="M22.656,42.187H18.75V39.062a3.128,3.128,0,0,1,3.125-3.125h.391a1.169,1.169,0,0,0,1.172-1.172V32.422a1.169,1.169,0,0,0-1.172-1.172h-.391a7.81,7.81,0,0,0-7.813,7.812V50.781a2.344,2.344,0,0,0,2.344,2.344h6.25A2.344,2.344,0,0,0,25,50.781v-6.25A2.344,2.344,0,0,0,22.656,42.187Zm-14.063,0H4.687V39.062a3.128,3.128,0,0,1,3.125-3.125H8.2a1.169,1.169,0,0,0,1.172-1.172V32.422A1.169,1.169,0,0,0,8.2,31.25H7.812C3.5,31.25,1.953,34.18,0,39.062S0,50.781,0,50.781a2.344,2.344,0,0,0,2.344,2.344h6.25a2.344,2.344,0,0,0,2.344-2.344v-6.25A2.344,2.344,0,0,0,8.594,42.187Z" transform="translate(0.868 -31.25)" fill="#fff"/>
</svg>
